Coordinates
version=1
nRows=14
nColumns=36
inDegrees=yes

Units are S.I. units (second, meters, Newtons, ...)
If the header above contains a line with 'inDegrees', this indicates whether rotational values are in degrees (yes) or radians (no).

endheader
time	pelvis_tilt	pelvis_list	pelvis_rotation	pelvis_tx	pelvis_ty	pelvis_tz	hip_flexion_r	hip_adduction_r	hip_rotation_r	knee_angle_r	knee_angle_r_beta	ankle_angle_r	subtalar_angle_r	mtp_angle_r	hip_flexion_l	hip_adduction_l	hip_rotation_l	knee_angle_l	knee_angle_l_beta	ankle_angle_l	subtalar_angle_l	mtp_angle_l	lumbar_extension	lumbar_bending	lumbar_rotation	arm_flex_r	arm_add_r	arm_rot_r	elbow_flex_r	pro_sup_r	arm_flex_l	arm_add_l	arm_rot_l	elbow_flex_l	pro_sup_l
      5.37083330	     -2.97764393	     -0.44039301	     18.02225743	     -0.94722742	      1.30002802	     -0.08944623	     -3.19511723	      0.43004226	    -16.28225842	      3.42956301	      0.05985717	     -2.99953255	    -23.05664783	     -7.49999987	      2.82618014	     -0.51518694	     32.24010978	      7.79263344	      0.13600711	      5.65742329	    -12.41752268	     -7.49999987	     -1.48729696	      1.31734003	     10.81283396	     -1.90871665	     -9.96118105	      2.73276242	     23.70654041	     96.52694204	      2.62768121	     -2.46967454	      6.67867825	     31.52146325	     98.13383438
      5.37500000	     -3.10669508	     -0.52609448	     18.15175448	     -0.94696093	      1.30012153	     -0.08994498	     -3.00130154	      0.49160983	    -16.25706863	      3.52030400	      0.06144090	     -2.72943321	    -23.00123459	     -7.49999987	      3.00001655	     -0.55483863	     32.44470477	      7.79708336	      0.13608478	      5.85866769	    -12.22478926	     -7.49999987	     -1.18917502	      1.32829530	     10.92666652	     -2.02968428	     -9.97800267	      2.82640899	     24.03574865	     96.17753760	      2.42005379	     -2.52040939	      6.61541770	     31.80971427	     97.75521878
      5.37916670	     -3.04476051	     -0.51776806	     18.24229003	     -0.94710849	      1.30041828	     -0.08972300	     -3.04447000	      0.52664174	    -16.12740889	      3.54575884	      0.06188517	     -2.75118743	    -23.24370668	     -7.49999987	      2.94201227	     -0.54573195	     32.81868066	      7.78637167	      0.13589782	      5.76056836	    -12.61863834	     -7.49999987	     -1.28524261	      1.35794323	     11.04331974	     -1.75950507	    -10.02316233	      3.31229887	     23.94378093	     96.02198435	      2.60471748	     -2.45270117	      6.35833255	     31.33851876	     97.51639075
      5.38333330	     -2.94177257	     -0.48952534	     18.43596664	     -0.94730501	      1.30059235	     -0.09064054	     -3.11873807	      0.54914460	    -16.01372666	      3.66603498	      0.06398438	     -2.59972290	    -23.40229133	     -7.49999987	      2.86565190	     -0.51689131	     33.07006653	      7.82703635	      0.13660755	      5.92231742	    -12.58942148	     -7.49999987	     -1.35649307	      1.34998406	     11.10527022	     -1.54852532	    -10.02441585	      3.60532409	     23.72619843	     95.95817398	      2.67652579	     -2.50139372	      6.27352449	     31.01342446	     97.38482792
      5.38750000	     -3.13053744	     -0.53007874	     18.57971774	     -0.94701167	      1.30077780	     -0.09007390	     -2.86571723	      0.52257433	    -16.08293290	      3.83117623	      0.06686664	     -2.39714349	    -23.37595412	     -7.49999987	      3.12713092	     -0.46373219	     33.22677899	      7.90815919	      0.13802342	      6.12414638	    -12.33530937	     -7.49999987	     -1.11247523	      1.26343441	     11.19413666	     -1.67171988	    -10.01927157	      3.69547547	     24.19245302	     95.53957841	      2.36904991	     -2.63713855	      6.16246057	     31.38470350	     96.93257380
      5.39166670	     -3.18286249	     -0.53664586	     18.75703792	     -0.94740303	      1.30062371	     -0.09109922	     -2.72700700	      0.50912775	    -15.83446010	      3.99812301	      0.06978041	     -2.95945118	    -24.42350199	     -7.49999987	      3.19279218	     -0.41080317	     33.72512390	      7.88915475	      0.13769173	      5.94949113	    -13.00619791	     -7.49999987	     -1.02027238	      1.28388110	     11.31573141	     -1.52166040	    -10.29055420	      4.89461080	     24.36471471	     97.22474420	      2.45280782	     -2.50502110	      5.44459171	     30.78155061	     98.32457674
      5.39583330	     -3.17454174	     -0.49525419	     18.88522210	     -0.94753555	      1.30078893	     -0.09088652	     -2.68970366	      0.45924293	    -15.89650970	      4.13828380	      0.07222668	     -2.70804347	    -24.35483301	     -7.49999987	      3.16091029	     -0.39049111	     33.81354516	      7.81425541	      0.13638449	      6.18724063	    -12.63283393	     -7.49999987	     -1.12717115	      1.21597530	     11.24775141	     -1.18955237	    -10.32606103	      5.01192416	     24.51337759	     99.40380122	      2.30550034	     -2.41187041	      4.11657764	     30.92948871	    100.75426582
      5.40000000	     -3.43023355	     -0.58227080	     19.05534695	     -0.94717201	      1.30064809	     -0.09150099	     -2.33716049	      0.43778929	    -15.98190123	      4.35087970	      0.07593718	     -2.20397513	    -24.13030496	     -7.49999987	      3.46777338	     -0.39657042	     33.85005880	      7.81225639	      0.13634960	      6.55356095	    -12.06700235	     -7.49999987	     -0.77133387	      1.21144349	     11.40140851	     -1.26068884	    -10.40751317	      5.06471388	     25.13338261	     98.61104258	      1.99579216	     -2.52749063	      4.05008592	     31.45326665	     99.92555137
      5.40416670	     -3.09402063	     -0.45143122	     19.18987710	     -0.94773834	      1.30122688	     -0.09131095	     -2.75619733	      0.43796331	    -15.92449823	      4.29961037	      0.07504236	     -2.86523082	    -24.85725657	     -7.49999987	      3.02163773	     -0.40220943	     34.05452729	      7.60805843	      0.13278567	      6.17730717	    -12.45101378	     -7.49999987	     -1.25868097	      1.20792332	     11.62674478	     -0.71946623	    -10.63453308	      6.32613478	     24.84285762	     99.05336720	      2.44876683	     -2.58181232	      4.44646315	     30.54267706	    100.16177442
      5.40833330	     -3.04757641	     -0.41692331	     19.37728522	     -0.94766640	      1.30139356	     -0.09179340	     -2.82458192	      0.39450632	    -16.08368784	      4.33541730	      0.07566731	     -3.02724190	    -25.13520966	     -7.49999987	      2.95944717	     -0.37373890	     34.19685273	      7.54127987	      0.13162016	      6.09004219	    -12.59919943	     -7.49999987	     -1.28406009	      1.22647492	     11.78871880	     -0.52069435	    -10.78883944	      6.95351720	     24.97438997	     98.90812459	      2.53370264	     -2.57108722	      4.44609731	     30.20102192	     99.84411971
      5.41250000	     -3.06632958	     -0.37496621	     19.51976453	     -0.94783850	      1.30129657	     -0.09158460	     -2.82979216	      0.33949049	    -16.14033743	      4.32417666	      0.07547112	     -3.31679035	    -25.60223848	     -7.49999987	      2.97084215	     -0.33887981	     34.17865921	      7.48686088	      0.13067037	      6.09946567	    -12.48109890	     -7.49999987	     -1.19698802	      1.19536578	     11.98550769	     -0.38863712	    -10.82945207	      7.19406867	     24.92365994	     98.09471798	      2.58821188	     -2.63151519	      4.38731696	     29.98863969	     98.94107962
      5.41666670	     -3.17554771	     -0.39327991	     19.65274140	     -0.94757776	      1.30121359	     -0.09203385	     -2.71899405	      0.31233192	    -16.35311670	      4.40593357	      0.07689805	     -2.99088775	    -25.40798072	     -7.49999987	      3.08143456	     -0.35055359	     34.18439991	      7.45614509	      0.13013428	      6.32154919	    -12.09635334	     -7.49999987	     -0.95654377	      1.18126854	     12.14302502	     -0.45792239	    -10.93517409	      7.27110618	     25.29665101	     97.65045384	      2.40184886	     -2.72725420	      4.32239355	     30.32188692	     98.46103016
      5.42083330	     -3.18882618	     -0.34991765	     19.77079021	     -0.95399219	      1.30145699	     -0.09614214	     -2.67202202	      0.16278382	    -16.45522046	      4.39321594	      0.07667608	     -3.01733411	    -25.45007211	     -7.49999987	      3.11822024	     -0.23625928	     34.14619310	      7.40513232	      0.12924394	      6.30522935	    -12.12429995	     -7.49999987	     -0.96262843	      1.28209662	     12.25915329	     -0.22918222	    -11.07621719	      7.26710589	     25.33999208	     97.65583098	      2.44477812	     -2.69203953	      4.32608744	     30.29263655	     98.46426359
      5.42500000	     -2.94796102	     -0.16960377	     19.93036977	     -0.94786994	      1.30197940	     -0.09215447	     -2.95061345	      0.06355065	    -16.58226162	      4.40051965	      0.07680356	     -3.35589564	    -25.91111450	     -7.49999987	      2.84206590	     -0.13392380	     34.42654792	      7.42312826	      0.12955803	      5.96730269	    -12.44049404	     -7.49999987	     -1.40622483	      1.21727352	     12.50317534	     -0.01754605	    -11.41960070	      8.04973238	     25.49149291	     97.94017882	      2.85624100	     -2.57852681	      4.36896392	     29.25732176	     98.51770633
